<?xml version="1.0" encoding="UTF-8"?>
<svg xmlns="http://www.w3.org/2000/svg" xmlns:xlink="http://www.w3.org/1999/xlink" width="99pt" height="98.999996pt" viewBox="0 0 99 98.999996" version="1.2">
<defs>
<clipPath id="clip1">
  <path d="M 3.542969 0 L 91 0 L 91 96 L 3.542969 96 Z M 3.542969 0 "/>
</clipPath>
</defs>
<g id="surface1">
<path style=" stroke:none;fill-rule:nonzero;fill:rgb(2.749634%,6.669617%,5.488586%);fill-opacity:1;" d="M 46.363281 98.914062 C 42.898438 98.914062 39.519531 98.449219 36.324219 97.535156 C 27.484375 94.996094 20.257812 89.113281 15.425781 80.519531 C 10.511719 71.769531 7.550781 60.207031 7.300781 48.796875 C 6.984375 34.378906 11.464844 21.382812 19.589844 13.136719 C 25.894531 6.734375 34.160156 3.351562 43.488281 3.351562 C 44.597656 3.351562 45.738281 3.402344 46.875 3.496094 C 61.882812 4.757812 76.1875 12.886719 85.140625 25.246094 C 93.351562 36.578125 96.136719 49.898438 92.980469 62.753906 C 90.605469 72.433594 84.367188 81.550781 75.410156 88.414062 C 66.582031 95.1875 56.265625 98.914062 46.363281 98.914062 M 43.488281 26.035156 C 40.3125 26.035156 37.90625 26.976562 35.910156 29 C 32.226562 32.742188 29.957031 40.320312 30.132812 48.304688 C 30.300781 56.019531 32.257812 63.929688 35.371094 69.46875 C 37.253906 72.824219 39.640625 74.875 42.660156 75.742188 C 43.796875 76.066406 45.039062 76.234375 46.363281 76.234375 C 56.542969 76.234375 68.417969 67.074219 70.792969 57.382812 C 72.34375 51.066406 70.855469 44.359375 66.605469 38.492188 C 61.496094 31.441406 53.398438 26.808594 44.949219 26.097656 C 44.449219 26.054688 43.957031 26.035156 43.488281 26.035156 "/>
<g clip-path="url(#clip1)" clip-rule="nonzero">
<path style=" stroke:none;fill-rule:nonzero;fill:rgb(100%,98.81897%,78.819275%);fill-opacity:1;" d="M 42.910156 72.972656 C 41.589844 72.972656 40.34375 72.804688 39.207031 72.480469 C 36.1875 71.613281 33.804688 69.5625 31.917969 66.203125 C 28.804688 60.667969 26.847656 52.757812 26.679688 45.042969 C 26.503906 37.054688 28.773438 29.476562 32.457031 25.738281 C 34.453125 23.714844 36.859375 22.773438 40.035156 22.773438 C 40.503906 22.773438 40.996094 22.792969 41.496094 22.835938 C 49.949219 23.546875 58.042969 28.179688 63.152344 35.230469 C 67.402344 41.097656 68.890625 47.804688 67.339844 54.121094 C 64.964844 63.808594 53.089844 72.972656 42.910156 72.972656 Z M 81.691406 21.984375 C 72.734375 9.625 58.429688 1.496094 43.421875 0.234375 C 42.285156 0.140625 41.148438 0.0898438 40.035156 0.0898438 C 30.707031 0.0898438 22.441406 3.472656 16.136719 9.875 C 8.011719 18.121094 3.53125 31.117188 3.847656 45.535156 C 4.097656 56.945312 7.058594 68.507812 11.976562 77.257812 C 16.804688 85.851562 24.03125 91.734375 32.871094 94.269531 C 36.066406 95.1875 39.445312 95.652344 42.910156 95.652344 C 52.8125 95.652344 63.128906 91.921875 71.957031 85.152344 C 80.914062 78.285156 87.152344 69.171875 89.527344 59.488281 C 92.683594 46.632812 89.898438 33.3125 81.691406 21.984375 "/>
</g>
<path style=" stroke:none;fill-rule:nonzero;fill:rgb(9.408569%,59.21936%,42.349243%);fill-opacity:1;" d="M 40.035156 18.585938 C 35.710938 18.585938 32.246094 19.96875 29.445312 22.808594 C 24.941406 27.382812 22.265625 35.9375 22.464844 45.132812 C 22.648438 53.5 24.804688 62.136719 28.238281 68.242188 C 30.65625 72.550781 33.953125 75.332031 38.039062 76.503906 C 39.554688 76.9375 41.191406 77.15625 42.910156 77.15625 C 55.007812 77.15625 68.605469 66.648438 71.4375 55.113281 C 73.28125 47.589844 71.554688 39.660156 66.574219 32.785156 C 60.757812 24.753906 51.515625 19.476562 41.851562 18.664062 C 41.234375 18.613281 40.625 18.585938 40.035156 18.585938 Z M 42.910156 91.46875 C 39.839844 91.46875 36.855469 91.058594 34.042969 90.25 C 26.289062 88.027344 19.929688 82.828125 15.65625 75.21875 C 11.0625 67.042969 8.296875 56.191406 8.0625 45.445312 C 7.769531 32.148438 11.8125 20.25 19.148438 12.800781 C 24.644531 7.222656 31.867188 4.273438 40.035156 4.273438 C 41.027344 4.273438 42.046875 4.320312 43.066406 4.40625 C 56.863281 5.5625 70.027344 13.046875 78.269531 24.429688 C 85.746094 34.75 88.292969 46.851562 85.433594 58.5 C 83.285156 67.261719 77.582031 75.550781 69.382812 81.839844 C 61.285156 88.046875 51.886719 91.46875 42.910156 91.46875 "/>
</g>
</svg>
