<?xml version="1.0" encoding="UTF-8"?>
<svg xmlns="http://www.w3.org/2000/svg" xmlns:xlink="http://www.w3.org/1999/xlink" width="99pt" height="98.999996pt" viewBox="0 0 99 98.999996" version="1.2">
<defs>
<clipPath id="clip1">
  <path d="M 14 4 L 88 4 L 88 98.585938 L 14 98.585938 Z M 14 4 "/>
</clipPath>
<clipPath id="clip2">
  <path d="M 10 0.839844 L 84 0.839844 L 84 95 L 10 95 Z M 10 0.839844 "/>
</clipPath>
</defs>
<g id="surface1">
<g clip-path="url(#clip1)" clip-rule="nonzero">
<path style=" stroke:none;fill-rule:nonzero;fill:rgb(2.749634%,6.669617%,5.488586%);fill-opacity:1;" d="M 26.96875 98.5 C 22.070312 98.5 17.546875 95.648438 15.445312 91.234375 C 13.980469 88.164062 13.804688 84.710938 14.945312 81.507812 C 16.085938 78.300781 18.410156 75.734375 21.484375 74.273438 C 22.203125 73.933594 28.210938 71.144531 36.796875 68.972656 C 38.101562 64.152344 38.910156 58.085938 39.183594 51.0625 C 33.925781 53.539062 29.664062 54.230469 28.671875 54.363281 C 28.464844 54.390625 28.253906 54.402344 28.042969 54.402344 C 27.015625 54.402344 26.011719 54.070312 25.191406 53.445312 C 24.195312 52.6875 23.542969 51.570312 23.375 50.335938 L 21.34375 35.332031 C 21.246094 35.050781 21.175781 34.757812 21.132812 34.457031 C 20.78125 31.929688 22.507812 29.589844 25.015625 29.171875 C 25.175781 29.140625 27.824219 28.613281 30.546875 26.761719 C 34.230469 24.253906 36.453125 20.46875 37.335938 15.191406 C 38.363281 9.027344 43.652344 4.554688 49.90625 4.554688 L 49.9375 4.554688 C 56.210938 4.566406 61.496094 9.058594 62.503906 15.234375 C 62.578125 15.683594 64.300781 26.351562 64.71875 39.925781 C 65.027344 49.945312 64.546875 58.949219 63.289062 66.785156 C 69.976562 67.558594 76.046875 69.46875 81.382812 72.496094 C 87.5 75.957031 89.652344 83.742188 86.179688 89.847656 C 83.917969 93.824219 79.664062 96.292969 75.082031 96.292969 C 72.882812 96.292969 70.710938 95.71875 68.792969 94.632812 C 65.492188 92.765625 61.308594 91.816406 56.359375 91.816406 C 44.441406 91.816406 32.523438 97.226562 32.441406 97.265625 C 30.714844 98.082031 28.871094 98.5 26.96875 98.5 "/>
</g>
<g clip-path="url(#clip2)" clip-rule="nonzero">
<path style=" stroke:none;fill-rule:nonzero;fill:rgb(100%,98.81897%,78.819275%);fill-opacity:1;" d="M 23.113281 94.835938 C 25.015625 94.835938 26.855469 94.421875 28.585938 93.601562 C 28.667969 93.566406 40.585938 88.15625 52.503906 88.15625 C 57.453125 88.15625 61.636719 89.105469 64.933594 90.972656 C 66.851562 92.058594 69.027344 92.632812 71.222656 92.632812 C 75.808594 92.632812 80.0625 90.164062 82.324219 86.1875 C 85.796875 80.082031 83.644531 72.296875 77.527344 68.832031 C 72.1875 65.808594 66.121094 63.898438 59.433594 63.125 C 60.6875 55.289062 61.167969 46.28125 60.863281 36.265625 C 60.445312 22.6875 58.722656 12.019531 58.648438 11.574219 C 57.640625 5.398438 52.355469 0.90625 46.082031 0.894531 L 46.050781 0.894531 C 39.792969 0.894531 34.503906 5.367188 33.476562 11.53125 C 32.597656 16.808594 30.375 20.589844 26.6875 23.101562 C 23.96875 24.953125 21.320312 25.476562 21.160156 25.507812 C 18.652344 25.929688 16.921875 28.265625 17.277344 30.792969 C 17.320312 31.097656 17.390625 31.390625 17.488281 31.667969 L 19.519531 46.675781 C 19.6875 47.910156 20.339844 49.027344 21.332031 49.78125 C 22.15625 50.410156 23.160156 50.742188 24.183594 50.742188 C 24.394531 50.742188 24.605469 50.726562 24.816406 50.699219 C 25.804688 50.566406 30.066406 49.878906 35.324219 47.402344 C 35.050781 54.425781 34.246094 60.492188 32.9375 65.3125 C 24.355469 67.480469 18.34375 70.273438 17.628906 70.613281 C 14.550781 72.074219 12.226562 74.640625 11.085938 77.84375 C 9.945312 81.046875 10.125 84.503906 11.585938 87.574219 C 13.6875 91.988281 18.210938 94.835938 23.113281 94.835938 "/>
</g>
<path style=" stroke:none;fill-rule:nonzero;fill:rgb(79.60968%,42.349243%,90.19928%);fill-opacity:1;" d="M 75.203125 72.917969 C 68.433594 69.085938 60.996094 67.609375 53.820312 67.449219 C 55.738281 58.84375 56.527344 48.46875 56.15625 36.410156 C 55.75 23.152344 54.074219 12.765625 54 12.332031 C 53.367188 8.453125 50.011719 5.597656 46.074219 5.589844 C 42.136719 5.582031 38.769531 8.425781 38.121094 12.304688 C 37.03125 18.820312 34.078125 23.757812 29.339844 26.980469 C 25.582031 29.542969 21.976562 30.136719 21.9375 30.140625 L 22.027344 30.128906 L 24.183594 46.042969 C 24.859375 45.953125 30.96875 45.035156 37.5625 40.8125 C 38.386719 40.28125 39.246094 39.683594 40.117188 39.015625 C 40.292969 49.40625 39.542969 60.742188 36.65625 69.257812 C 27.144531 71.367188 20.253906 74.570312 19.652344 74.855469 C 15.636719 76.761719 13.929688 81.550781 15.839844 85.554688 C 17.214844 88.449219 20.101562 90.140625 23.113281 90.140625 C 24.269531 90.140625 25.445312 89.890625 26.5625 89.359375 C 26.808594 89.242188 51.523438 77.972656 67.257812 86.886719 C 71.125 89.078125 76.035156 87.722656 78.230469 83.867188 C 80.425781 80.007812 79.070312 75.109375 75.203125 72.917969 "/>
</g>
</svg>
