<?xml version="1.0" encoding="UTF-8"?>
<svg xmlns="http://www.w3.org/2000/svg" xmlns:xlink="http://www.w3.org/1999/xlink" width="99pt" height="98.999996pt" viewBox="0 0 99 98.999996" version="1.2">
<defs>
<clipPath id="clip1">
  <path d="M 16 4 L 89.644531 4 L 89.644531 98.660156 L 16 98.660156 Z M 16 4 "/>
</clipPath>
<clipPath id="clip2">
  <path d="M 12 0.914062 L 86 0.914062 L 86 96 L 12 96 Z M 12 0.914062 "/>
</clipPath>
</defs>
<g id="surface1">
<g clip-path="url(#clip1)" clip-rule="nonzero">
<path style=" stroke:none;fill-rule:nonzero;fill:rgb(2.749634%,6.669617%,5.488586%);fill-opacity:1;" d="M 29.582031 98.65625 C 26.335938 98.65625 23.167969 97.3125 20.898438 94.972656 C 16.585938 90.519531 16.347656 83.570312 20.339844 78.800781 C 32.164062 64.6875 39.886719 52.472656 43.300781 42.488281 C 45.582031 35.820312 45.339844 31.578125 44.355469 29.832031 C 43.875 28.972656 42.980469 28.539062 41.695312 28.539062 C 41.449219 28.539062 41.207031 28.558594 40.96875 28.59375 C 40.761719 28.625 40.601562 28.660156 40.480469 28.691406 C 40.113281 29.867188 40.214844 32.789062 40.609375 34.269531 C 41.445312 37.382812 41.015625 40.636719 39.402344 43.429688 C 37.789062 46.222656 35.183594 48.21875 32.070312 49.054688 C 31.042969 49.324219 29.992188 49.464844 28.941406 49.464844 C 23.484375 49.464844 18.6875 45.785156 17.277344 40.515625 C 16.625 38.078125 13.703125 25.398438 20.382812 15.191406 C 22.996094 11.195312 28.058594 6.136719 37.335938 4.726562 C 38.796875 4.503906 40.277344 4.390625 41.734375 4.390625 C 51.765625 4.390625 60.617188 9.476562 65.410156 17.996094 C 68.757812 23.941406 71.605469 34.367188 66.160156 50.292969 C 64.511719 55.113281 62.167969 60.25 59.160156 65.632812 C 67.625 66.050781 75.707031 68.53125 83.21875 73.019531 C 85.984375 74.675781 87.945312 77.308594 88.730469 80.4375 C 89.515625 83.5625 89.039062 86.808594 87.382812 89.574219 C 85.214844 93.199219 81.242188 95.453125 77.011719 95.453125 C 74.835938 95.453125 72.695312 94.859375 70.820312 93.742188 C 66.339844 91.066406 61.554688 89.707031 56.59375 89.707031 C 53.828125 89.707031 50.945312 90.125 48.027344 90.957031 C 41.742188 92.738281 37.386719 95.816406 36.917969 96.15625 C 34.824219 97.765625 32.222656 98.65625 29.582031 98.65625 "/>
</g>
<g clip-path="url(#clip2)" clip-rule="nonzero">
<path style=" stroke:none;fill-rule:nonzero;fill:rgb(100%,98.81897%,78.819275%);fill-opacity:1;" d="M 25.289062 45.992188 C 26.339844 45.992188 27.394531 45.855469 28.417969 45.582031 C 31.535156 44.746094 34.136719 42.75 35.75 39.957031 C 37.363281 37.164062 37.792969 33.910156 36.957031 30.796875 C 36.5625 29.316406 36.464844 26.394531 36.832031 25.21875 C 36.949219 25.1875 37.109375 25.152344 37.316406 25.121094 C 37.554688 25.085938 37.796875 25.066406 38.042969 25.066406 C 39.324219 25.066406 40.222656 25.5 40.703125 26.359375 C 41.6875 28.105469 41.925781 32.351562 39.648438 39.015625 C 36.234375 49 28.511719 61.214844 16.6875 75.328125 C 12.695312 80.097656 12.933594 87.050781 17.25 91.5 C 19.519531 93.839844 22.683594 95.183594 25.929688 95.183594 C 28.570312 95.183594 31.171875 94.296875 33.265625 92.683594 C 33.734375 92.34375 38.09375 89.265625 44.375 87.484375 C 47.292969 86.65625 50.175781 86.234375 52.941406 86.234375 C 57.902344 86.234375 62.6875 87.589844 67.167969 90.269531 C 69.039062 91.390625 71.183594 91.980469 73.359375 91.980469 C 77.589844 91.980469 81.5625 89.726562 83.730469 86.101562 C 85.386719 83.335938 85.867188 80.089844 85.078125 76.964844 C 84.292969 73.835938 82.332031 71.203125 79.566406 69.546875 C 72.054688 65.058594 63.972656 62.578125 55.507812 62.160156 C 58.515625 56.777344 60.859375 51.640625 62.507812 46.820312 C 67.953125 30.898438 65.105469 20.46875 61.757812 14.523438 C 56.964844 6.003906 48.113281 0.921875 38.082031 0.921875 C 36.625 0.921875 35.144531 1.03125 33.683594 1.253906 C 24.40625 2.664062 19.34375 7.722656 16.730469 11.71875 C 10.050781 21.929688 12.972656 34.605469 13.625 37.042969 C 15.039062 42.3125 19.832031 45.992188 25.289062 45.992188 "/>
</g>
<path style=" stroke:none;fill-rule:nonzero;fill:rgb(0%,76.078796%,79.60968%);fill-opacity:1;" d="M 25.929688 90.726562 C 23.929688 90.726562 21.941406 89.9375 20.449219 88.398438 C 17.734375 85.597656 17.601562 81.175781 20.109375 78.1875 C 32.28125 63.65625 40.273438 50.960938 43.867188 40.457031 C 46.277344 33.410156 46.53125 27.625 44.589844 24.175781 C 42.808594 21.007812 39.316406 20.3125 36.644531 20.71875 C 34.128906 21.101562 33.492188 22.074219 33.21875 22.492188 C 31.539062 25.054688 32.214844 30.320312 32.652344 31.949219 C 33.742188 36.011719 31.328125 40.1875 27.261719 41.277344 C 23.199219 42.367188 19.019531 39.953125 17.929688 35.890625 C 17.582031 34.59375 14.699219 22.960938 20.460938 14.15625 C 22.578125 10.921875 26.707031 6.820312 34.351562 5.660156 C 44.035156 4.1875 53.265625 8.523438 57.875 16.707031 C 60.773438 21.859375 63.199219 31.015625 58.289062 45.382812 C 56.035156 51.972656 52.425781 59.152344 47.492188 66.859375 C 57.941406 65.6875 68.09375 67.886719 77.277344 73.371094 C 80.886719 75.53125 82.066406 80.207031 79.90625 83.816406 C 77.746094 87.429688 73.066406 88.605469 69.453125 86.445312 C 61.394531 81.625 52.546875 80.535156 43.15625 83.199219 C 35.875 85.261719 30.875 88.90625 30.582031 89.121094 C 29.203125 90.199219 27.5625 90.726562 25.929688 90.726562 "/>
</g>
</svg>
