<?xml version="1.0" encoding="UTF-8"?>
<svg xmlns="http://www.w3.org/2000/svg" xmlns:xlink="http://www.w3.org/1999/xlink" width="99pt" height="98.999996pt" viewBox="0 0 99 98.999996" version="1.2">
<defs>
<clipPath id="clip1">
  <path d="M 20 4 L 82 4 L 82 96.414062 L 20 96.414062 Z M 20 4 "/>
</clipPath>
<clipPath id="clip2">
  <path d="M 16.632812 1.675781 L 79 1.675781 L 79 94 L 16.632812 94 Z M 16.632812 1.675781 "/>
</clipPath>
</defs>
<g id="surface1">
<g clip-path="url(#clip1)" clip-rule="nonzero">
<path style=" stroke:none;fill-rule:nonzero;fill:rgb(2.749634%,6.669617%,5.488586%);fill-opacity:1;" d="M 53.316406 96.351562 C 51.210938 96.351562 49.023438 96.152344 46.824219 95.761719 C 38.660156 94.316406 30.269531 90.234375 23.808594 84.558594 C 21.621094 82.636719 20.316406 79.980469 20.128906 77.078125 C 19.945312 74.175781 20.90625 71.375 22.832031 69.191406 C 24.902344 66.84375 27.890625 65.5 31.027344 65.5 C 33.679688 65.5 36.242188 66.464844 38.238281 68.214844 C 41.726562 71.28125 46.367188 73.566406 50.640625 74.320312 C 51.578125 74.488281 52.476562 74.574219 53.300781 74.574219 C 55.371094 74.574219 56.914062 74.046875 57.875 73.007812 C 59.964844 70.75 61.195312 61.8125 58 57.613281 C 57.285156 56.980469 55.28125 55.75 54.125 55.203125 C 53.941406 55.214844 53.761719 55.21875 53.578125 55.21875 C 48.960938 55.21875 44.824219 52.300781 43.285156 47.957031 C 41.28125 42.296875 44.261719 36.066406 49.9375 34.0625 C 53.5 32.808594 55.746094 30.871094 56.386719 29.894531 C 56.375 29.871094 56.363281 29.847656 56.347656 29.820312 C 54.851562 27.085938 52.355469 26.675781 50.964844 26.675781 C 48.367188 26.683594 46.175781 27.992188 44.964844 30.257812 C 43.058594 33.804688 39.367188 36.011719 35.332031 36.011719 C 33.546875 36.011719 31.769531 35.566406 30.1875 34.722656 C 27.617188 33.351562 25.738281 31.0625 24.890625 28.277344 C 24.046875 25.496094 24.335938 22.550781 25.714844 19.984375 C 30.679688 10.722656 40.324219 4.941406 50.878906 4.898438 L 51.007812 4.898438 C 61.394531 4.898438 70.558594 10.320312 75.515625 19.398438 C 78.714844 25.253906 79.199219 31.480469 76.921875 37.410156 C 76.199219 39.285156 75.21875 41.078125 73.988281 42.773438 C 74.234375 43.039062 74.464844 43.296875 74.679688 43.554688 C 79.554688 49.449219 82.0625 57.613281 81.738281 66.535156 C 81.429688 75 78.574219 82.746094 73.910156 87.78125 C 68.71875 93.386719 61.597656 96.351562 53.316406 96.351562 "/>
</g>
<g clip-path="url(#clip2)" clip-rule="nonzero">
<path style=" stroke:none;fill-rule:nonzero;fill:rgb(100%,98.81897%,78.819275%);fill-opacity:1;" d="M 20.511719 81.425781 C 26.96875 87.101562 35.359375 91.183594 43.523438 92.632812 C 45.722656 93.019531 47.90625 93.21875 50.015625 93.21875 C 58.296875 93.21875 65.417969 90.257812 70.609375 84.652344 C 75.273438 79.613281 78.128906 71.871094 78.4375 63.40625 C 78.761719 54.480469 76.253906 46.320312 71.378906 40.421875 C 71.164062 40.164062 70.933594 39.90625 70.6875 39.644531 C 71.917969 37.945312 72.902344 36.152344 73.621094 34.277344 C 75.898438 28.347656 75.414062 22.121094 72.214844 16.269531 C 67.257812 7.1875 58.09375 1.769531 47.707031 1.769531 L 47.578125 1.769531 C 37.023438 1.808594 27.382812 7.589844 22.414062 16.855469 C 21.039062 19.417969 20.746094 22.363281 21.589844 25.144531 C 22.4375 27.929688 24.316406 30.21875 26.886719 31.589844 C 28.46875 32.433594 30.246094 32.878906 32.03125 32.878906 C 36.066406 32.878906 39.757812 30.671875 41.664062 27.125 C 42.875 24.859375 45.066406 23.554688 47.664062 23.542969 C 49.054688 23.542969 51.554688 23.953125 53.046875 26.6875 C 53.0625 26.714844 53.074219 26.738281 53.085938 26.761719 C 52.445312 27.742188 50.199219 29.675781 46.636719 30.929688 C 40.960938 32.933594 37.980469 39.167969 39.984375 44.824219 C 41.527344 49.167969 45.660156 52.085938 50.277344 52.085938 C 50.460938 52.085938 50.640625 52.082031 50.824219 52.070312 C 51.980469 52.617188 53.988281 53.851562 54.699219 54.480469 C 57.894531 58.679688 56.664062 67.617188 54.574219 69.875 C 53.613281 70.914062 52.070312 71.441406 50 71.441406 C 49.175781 71.441406 48.28125 71.355469 47.339844 71.191406 C 43.066406 70.433594 38.425781 68.152344 34.9375 65.085938 C 32.941406 63.332031 30.378906 62.367188 27.726562 62.367188 C 24.589844 62.367188 21.601562 63.714844 19.53125 66.0625 C 17.601562 68.242188 16.644531 71.042969 16.828125 73.945312 C 17.015625 76.851562 18.320312 79.507812 20.511719 81.425781 "/>
</g>
<path style=" stroke:none;fill-rule:nonzero;fill:rgb(54.899597%,32.159424%,100%);fill-opacity:1;" d="M 50.015625 89.199219 C 48.144531 89.199219 46.214844 89.027344 44.226562 88.675781 C 36.769531 87.351562 29.09375 83.613281 23.171875 78.410156 C 20.316406 75.90625 20.039062 71.5625 22.554688 68.714844 C 25.066406 65.867188 29.417969 65.59375 32.273438 68.097656 C 36.296875 71.632812 41.664062 74.265625 46.636719 75.148438 C 49.984375 75.742188 54.589844 75.78125 57.53125 72.601562 C 60.976562 68.882812 62.3125 57.449219 57.691406 51.777344 C 56.609375 50.664062 53.015625 48.457031 51.375 47.976562 C 48.148438 48.5 44.910156 46.667969 43.785156 43.488281 C 42.515625 39.910156 44.394531 35.984375 47.980469 34.71875 C 52.34375 33.179688 56.050781 30.386719 56.996094 27.921875 C 57.265625 27.226562 57.425781 26.304688 56.585938 24.765625 C 53.988281 20.015625 49.460938 19.515625 47.648438 19.523438 C 43.582031 19.542969 40.015625 21.671875 38.109375 25.226562 C 36.316406 28.574219 32.140625 29.835938 28.789062 28.046875 C 25.4375 26.257812 24.171875 22.09375 25.964844 18.75 C 30.234375 10.789062 38.523438 5.824219 47.597656 5.785156 C 56.527344 5.746094 64.417969 10.390625 68.679688 18.191406 C 71.292969 22.976562 71.703125 28.042969 69.859375 32.839844 C 68.765625 35.6875 67.03125 38.070312 65.058594 40.039062 C 66.304688 40.984375 67.460938 42 68.269531 42.980469 C 72.519531 48.117188 74.699219 55.320312 74.410156 63.257812 C 74.136719 70.777344 71.671875 77.582031 67.652344 81.921875 C 63.226562 86.703125 57.09375 89.199219 50.015625 89.199219 "/>
</g>
</svg>
