<?xml version="1.0" encoding="UTF-8"?>
<svg xmlns="http://www.w3.org/2000/svg" xmlns:xlink="http://www.w3.org/1999/xlink" width="99pt" height="98.999996pt" viewBox="0 0 99 98.999996" version="1.2">
<defs>
<clipPath id="clip1">
  <path d="M 21 3 L 82.507812 3 L 82.507812 99 L 21 99 Z M 21 3 "/>
</clipPath>
<clipPath id="clip2">
  <path d="M 17.09375 0 L 79 0 L 79 96 L 17.09375 96 Z M 17.09375 0 "/>
</clipPath>
</defs>
<g id="surface1">
<g clip-path="url(#clip1)" clip-rule="nonzero">
<path style=" stroke:none;fill-rule:nonzero;fill:rgb(2.749634%,6.669617%,5.488586%);fill-opacity:1;" d="M 64.074219 99.175781 C 59.289062 99.175781 55.058594 96.140625 53.542969 91.617188 C 50.585938 82.78125 49.042969 72.945312 48.964844 62.375 C 48.957031 61.222656 48.96875 60.050781 48.996094 58.859375 C 44.335938 61.15625 40.917969 63.347656 40.742188 63.457031 C 38.9375 64.628906 36.84375 65.25 34.683594 65.25 C 33.820312 65.25 32.957031 65.152344 32.121094 64.953125 C 29.175781 64.257812 26.613281 62.367188 25.089844 59.761719 C 21.578125 53.765625 20.464844 44.777344 21.589844 31.46875 C 22.289062 23.175781 23.636719 16.167969 23.789062 15.394531 C 24.808594 10.222656 29.386719 6.46875 34.675781 6.46875 C 35.390625 6.46875 36.113281 6.539062 36.820312 6.679688 C 39.730469 7.246094 42.246094 8.910156 43.898438 11.359375 C 45.550781 13.8125 46.148438 16.753906 45.578125 19.644531 C 45.566406 19.710938 44.3125 26.175781 43.707031 33.4375 C 43.601562 34.691406 43.523438 35.894531 43.46875 37.039062 C 43.800781 36.894531 44.128906 36.75 44.457031 36.613281 C 47.023438 35.527344 49.523438 34.613281 51.914062 33.890625 C 54.738281 20.128906 58.617188 10.582031 58.789062 10.160156 C 60.503906 5.980469 64.539062 3.28125 69.074219 3.28125 C 70.511719 3.28125 71.921875 3.558594 73.265625 4.101562 C 78.925781 6.402344 81.65625 12.863281 79.359375 18.492188 C 79.332031 18.558594 76.871094 24.695312 74.660156 33.964844 C 75.488281 34.351562 76.28125 34.789062 77.042969 35.273438 C 79.535156 36.871094 81.257812 39.339844 81.886719 42.222656 C 82.515625 45.109375 81.980469 48.066406 80.375 50.546875 C 78.382812 53.636719 75.03125 55.511719 71.355469 55.613281 C 70.707031 66.484375 71.796875 76.226562 74.609375 84.628906 C 76.542969 90.410156 73.394531 96.683594 67.589844 98.609375 C 66.453125 98.984375 65.269531 99.175781 64.074219 99.175781 "/>
</g>
<g clip-path="url(#clip2)" clip-rule="nonzero">
<path style=" stroke:none;fill-rule:nonzero;fill:rgb(100%,98.81897%,78.819275%);fill-opacity:1;" d="M 28.765625 61.773438 C 29.597656 61.972656 30.460938 62.070312 31.324219 62.070312 C 33.484375 62.070312 35.582031 61.449219 37.386719 60.277344 C 37.558594 60.167969 40.976562 57.976562 45.636719 55.679688 C 45.609375 56.871094 45.597656 58.042969 45.609375 59.195312 C 45.6875 69.765625 47.226562 79.601562 50.1875 88.4375 C 51.699219 92.960938 55.933594 95.996094 60.71875 95.996094 C 61.910156 95.996094 63.09375 95.808594 64.230469 95.429688 C 70.035156 93.503906 73.1875 87.230469 71.25 81.449219 C 68.441406 73.046875 67.347656 63.308594 68 52.433594 C 71.671875 52.332031 75.027344 50.457031 77.019531 47.367188 C 78.621094 44.886719 79.160156 41.929688 78.527344 39.042969 C 77.898438 36.160156 76.179688 33.691406 73.683594 32.09375 C 72.925781 31.609375 72.128906 31.171875 71.300781 30.785156 C 73.515625 21.515625 75.972656 15.382812 76 15.3125 C 78.300781 9.683594 75.570312 3.222656 69.90625 0.925781 C 68.566406 0.378906 67.15625 0.101562 65.714844 0.101562 C 61.183594 0.101562 57.148438 2.804688 55.433594 6.980469 C 55.261719 7.402344 51.382812 16.949219 48.554688 30.710938 C 46.164062 31.433594 43.667969 32.347656 41.097656 33.433594 C 40.773438 33.574219 40.441406 33.714844 40.109375 33.859375 C 40.164062 32.714844 40.246094 31.511719 40.351562 30.257812 C 40.957031 23 42.207031 16.53125 42.222656 16.46875 C 42.792969 13.578125 42.195312 10.632812 40.542969 8.179688 C 38.886719 5.730469 36.375 4.066406 33.464844 3.5 C 32.757812 3.359375 32.035156 3.289062 31.316406 3.289062 C 26.027344 3.289062 21.449219 7.042969 20.429688 12.214844 C 20.277344 12.992188 18.933594 19.996094 18.234375 28.289062 C 17.109375 41.597656 18.222656 50.585938 21.734375 56.585938 C 23.257812 59.1875 25.820312 61.078125 28.765625 61.773438 "/>
</g>
<path style=" stroke:none;fill-rule:nonzero;fill:rgb(78.819275%,88.62915%,39.608765%);fill-opacity:1;" d="M 71.46875 35.527344 C 69.976562 34.570312 68.320312 33.859375 66.515625 33.394531 C 68.957031 21.882812 72.132812 13.957031 72.203125 13.785156 C 73.65625 10.21875 71.9375 6.15625 68.359375 4.699219 C 64.777344 3.246094 60.6875 4.957031 59.226562 8.523438 C 59.050781 8.957031 54.859375 19.273438 52.09375 33.957031 C 49.171875 34.703125 46.035156 35.777344 42.699219 37.1875 C 40.296875 38.207031 38.019531 39.296875 35.996094 40.335938 C 35.863281 37.78125 35.894531 34.386719 36.265625 29.921875 C 36.890625 22.417969 38.167969 15.84375 38.199219 15.6875 C 38.945312 11.910156 36.46875 8.242188 32.675781 7.503906 C 28.878906 6.761719 25.199219 9.222656 24.453125 13 C 24.394531 13.296875 23.015625 20.332031 22.316406 28.632812 C 21.28125 40.890625 22.25 49.363281 25.273438 54.53125 C 26.238281 56.179688 27.84375 57.363281 29.710938 57.804688 C 30.242188 57.929688 30.785156 57.992188 31.324219 57.992188 C 32.671875 57.992188 34.003906 57.605469 35.148438 56.859375 C 35.207031 56.824219 41.097656 53.023438 48.183594 50.023438 C 48.828125 49.75 49.453125 49.5 50.058594 49.265625 C 49.804688 52.632812 49.683594 55.9375 49.707031 59.164062 C 49.78125 69.304688 51.25 78.71875 54.074219 87.148438 C 55.050781 90.070312 57.785156 91.917969 60.71875 91.917969 C 61.453125 91.917969 62.199219 91.800781 62.933594 91.558594 C 66.605469 90.339844 68.585938 86.390625 67.363281 82.738281 C 63.484375 71.148438 63.164062 58.632812 64.289062 47.484375 C 67.492188 49.253906 71.5625 48.273438 73.574219 45.164062 C 75.664062 41.921875 74.722656 37.609375 71.46875 35.527344 "/>
</g>
</svg>
