<?xml version="1.0" encoding="UTF-8"?>
<svg xmlns="http://www.w3.org/2000/svg" xmlns:xlink="http://www.w3.org/1999/xlink" width="99pt" height="98.999996pt" viewBox="0 0 99 98.999996" version="1.2">
<defs>
<clipPath id="clip1">
  <path d="M 15 3 L 86.929688 3 L 86.929688 99 L 15 99 Z M 15 3 "/>
</clipPath>
<clipPath id="clip2">
  <path d="M 12.496094 0 L 83 0 L 83 97 L 12.496094 97 Z M 12.496094 0 "/>
</clipPath>
</defs>
<g id="surface1">
<g clip-path="url(#clip1)" clip-rule="nonzero">
<path style=" stroke:none;fill-rule:nonzero;fill:rgb(2.749634%,6.669617%,5.488586%);fill-opacity:1;" d="M 48.503906 99.242188 C 44.527344 99.242188 40.402344 98.65625 36.242188 97.503906 C 25.828125 94.613281 18.339844 89.054688 17.519531 88.429688 C 16.667969 87.777344 16.105469 86.816406 15.964844 85.75 C 15.820312 84.6875 16.105469 83.609375 16.757812 82.757812 L 24.835938 72.199219 C 24.921875 72.042969 25.023438 71.890625 25.136719 71.742188 C 25.9375 70.695312 27.144531 70.144531 28.363281 70.144531 C 29.214844 70.144531 30.070312 70.410156 30.800781 70.964844 C 30.847656 71 35.929688 74.730469 42.429688 76.460938 C 44.589844 77.035156 46.640625 77.328125 48.527344 77.328125 C 53.109375 77.328125 57.035156 75.597656 60.527344 72.042969 C 65.949219 66.519531 64.046875 63.253906 63.421875 62.179688 C 61.964844 59.671875 58.691406 57.421875 54.671875 56.160156 C 52.023438 55.332031 49.125 54.910156 46.058594 54.910156 C 42.964844 54.910156 39.726562 55.351562 36.433594 56.214844 C 35.523438 56.453125 34.585938 56.574219 33.644531 56.574219 C 31.222656 56.574219 28.835938 55.757812 26.917969 54.277344 C 24.238281 52.207031 22.648438 48.949219 22.664062 45.574219 C 22.664062 45.4375 22.664062 42.148438 22.289062 38.410156 C 21.914062 34.65625 21.390625 32.691406 21.109375 31.855469 C 18.242188 29.003906 17.027344 24.9375 17.9375 21 C 19.605469 13.765625 26.839844 11.378906 30.730469 10.09375 C 33.84375 9.0625 38.007812 7.949219 43.101562 6.777344 C 51.570312 4.828125 59.875 3.347656 59.953125 3.332031 C 60.589844 3.21875 61.238281 3.160156 61.882812 3.160156 C 61.886719 3.160156 61.890625 3.160156 61.890625 3.160156 C 67.214844 3.160156 71.757812 6.960938 72.695312 12.195312 C 73.210938 15.078125 72.570312 17.988281 70.894531 20.390625 C 69.214844 22.792969 66.703125 24.402344 63.8125 24.917969 C 63.746094 24.929688 57.253906 26.089844 50.285156 27.636719 C 47.609375 28.226562 45.21875 28.792969 43.125 29.332031 C 43.363281 30.488281 43.574219 31.71875 43.761719 33.035156 C 44.539062 33.003906 45.316406 32.988281 46.085938 32.988281 C 51.371094 32.988281 56.472656 33.746094 61.246094 35.242188 C 70.632812 38.179688 78.152344 43.835938 82.417969 51.167969 C 85.722656 56.851562 86.902344 63.21875 85.835938 69.582031 C 84.757812 75.992188 81.519531 81.984375 76.207031 87.390625 C 70.269531 93.441406 63.277344 97.222656 55.429688 98.632812 C 53.179688 99.035156 50.851562 99.242188 48.503906 99.242188 "/>
</g>
<g clip-path="url(#clip2)" clip-rule="nonzero">
<path style=" stroke:none;fill-rule:nonzero;fill:rgb(100%,98.81897%,78.819275%);fill-opacity:1;" d="M 45.183594 96.085938 C 47.53125 96.085938 49.859375 95.882812 52.109375 95.480469 C 59.957031 94.070312 66.949219 90.289062 72.890625 84.238281 C 78.199219 78.832031 81.4375 72.839844 82.515625 66.425781 C 83.582031 60.066406 82.402344 53.699219 79.09375 48.015625 C 74.828125 40.683594 67.3125 35.027344 57.925781 32.089844 C 53.152344 30.59375 48.050781 29.835938 42.765625 29.835938 C 41.996094 29.835938 41.222656 29.851562 40.441406 29.882812 C 40.253906 28.566406 40.042969 27.335938 39.804688 26.179688 C 41.894531 25.640625 44.289062 25.074219 46.964844 24.480469 C 53.9375 22.9375 60.425781 21.777344 60.492188 21.761719 C 63.382812 21.25 65.894531 19.640625 67.574219 17.238281 C 69.25 14.835938 69.890625 11.925781 69.375 9.042969 C 68.4375 3.808594 63.894531 0.0078125 58.570312 0.0078125 C 57.925781 0.0078125 57.273438 0.0664062 56.632812 0.179688 C 56.550781 0.191406 48.25 1.675781 39.78125 3.621094 C 34.6875 4.796875 30.523438 5.910156 27.410156 6.941406 C 23.519531 8.222656 16.285156 10.613281 14.613281 17.847656 C 13.707031 21.78125 14.917969 25.847656 17.789062 28.703125 C 18.070312 29.539062 18.597656 31.5 18.96875 35.257812 C 19.339844 38.996094 19.34375 42.285156 19.34375 42.421875 C 19.328125 45.792969 20.917969 49.054688 23.601562 51.125 C 25.511719 52.605469 27.902344 53.417969 30.324219 53.417969 C 31.265625 53.417969 32.203125 53.300781 33.113281 53.058594 C 36.40625 52.195312 39.640625 51.757812 42.738281 51.757812 C 45.804688 51.757812 48.703125 52.179688 51.351562 53.007812 C 55.371094 54.269531 58.644531 56.519531 60.105469 59.027344 C 60.726562 60.101562 62.628906 63.367188 57.207031 68.886719 C 53.710938 72.441406 49.789062 74.175781 45.207031 74.175781 C 43.320312 74.175781 41.269531 73.882812 39.109375 73.308594 C 32.609375 71.578125 27.527344 67.847656 27.476562 67.808594 C 26.746094 67.257812 25.890625 66.992188 25.042969 66.992188 C 23.824219 66.992188 22.617188 67.542969 21.816406 68.589844 C 21.703125 68.738281 21.605469 68.890625 21.515625 69.046875 L 13.4375 79.601562 C 12.785156 80.457031 12.5 81.535156 12.640625 82.597656 C 12.785156 83.660156 13.34375 84.625 14.199219 85.277344 C 15.019531 85.898438 22.507812 91.460938 32.921875 94.347656 C 37.082031 95.503906 41.207031 96.085938 45.183594 96.085938 "/>
</g>
<path style=" stroke:none;fill-rule:nonzero;fill:rgb(100%,56.858826%,30.198669%);fill-opacity:1;" d="M 45.183594 92.042969 C 41.566406 92.042969 37.828125 91.511719 34.007812 90.449219 C 24.152344 87.71875 16.960938 82.289062 16.660156 82.058594 L 25.070312 71.066406 L 25.050781 71.050781 C 25.105469 71.09375 30.703125 75.257812 38.066406 77.214844 C 46.941406 79.578125 54.148438 77.78125 60.101562 71.71875 C 63.558594 68.199219 66.976562 62.785156 63.609375 56.996094 C 61.625 53.585938 57.597656 50.726562 52.566406 49.148438 C 48.304688 47.8125 41.292969 46.730469 32.085938 49.148438 C 30 49.691406 27.785156 49.242188 26.082031 47.925781 C 24.378906 46.609375 23.386719 44.578125 23.394531 42.425781 C 23.394531 42.394531 23.402344 38.871094 23 34.855469 C 22.425781 29.066406 21.480469 26.878906 21.191406 26.328125 C 18.914062 24.4375 17.914062 21.585938 18.566406 18.753906 C 19.632812 14.128906 24.148438 12.277344 28.683594 10.78125 C 31.675781 9.792969 35.714844 8.710938 40.691406 7.566406 C 48.972656 5.660156 57.007812 4.222656 57.34375 4.160156 C 61.113281 3.488281 64.710938 5.992188 65.382812 9.753906 C 66.054688 13.515625 63.546875 17.109375 59.78125 17.78125 C 59.714844 17.792969 53.191406 18.957031 46.085938 20.53125 C 40.871094 21.683594 37.304688 22.617188 34.882812 23.335938 C 35.667969 25.773438 36.25 28.722656 36.65625 32.253906 C 36.734375 32.917969 36.800781 33.574219 36.859375 34.214844 C 43.800781 33.4375 50.546875 34.019531 56.710938 35.949219 C 65.128906 38.585938 71.835938 43.59375 75.589844 50.046875 C 78.414062 54.90625 79.425781 60.335938 78.515625 65.757812 C 77.578125 71.335938 74.710938 76.601562 69.996094 81.40625 C 64.652344 86.84375 58.394531 90.238281 51.390625 91.496094 C 49.367188 91.859375 47.296875 92.042969 45.183594 92.042969 "/>
</g>
</svg>
