<?xml version="1.0" encoding="UTF-8"?>
<svg xmlns="http://www.w3.org/2000/svg" xmlns:xlink="http://www.w3.org/1999/xlink" width="99pt" height="98.999996pt" viewBox="0 0 99 98.999996" version="1.2">
<defs>
<clipPath id="clip1">
  <path d="M 10 1.871094 L 83 1.871094 L 83 97 L 10 97 Z M 10 1.871094 "/>
</clipPath>
</defs>
<g id="surface1">
<path style=" stroke:none;fill-rule:nonzero;fill:rgb(2.749634%,6.669617%,5.488586%);fill-opacity:1;" d="M 50.460938 99.589844 C 46.042969 99.589844 41.78125 98.683594 37.796875 96.898438 C 35.292969 95.773438 32.929688 94.3125 30.75 92.539062 C 30.605469 92.605469 30.460938 92.664062 30.3125 92.722656 C 29.003906 93.246094 27.625 93.507812 26.222656 93.507812 C 21.644531 93.507812 17.597656 90.757812 15.90625 86.503906 C 13.3125 79.96875 13.296875 72.628906 15.84375 65.214844 C 13.40625 51.308594 17.183594 37.335938 26.804688 24.738281 C 35.40625 13.480469 45.96875 6.976562 46.414062 6.703125 C 48.152344 5.644531 50.144531 5.085938 52.175781 5.085938 C 56.082031 5.085938 59.628906 7.078125 61.65625 10.414062 C 64.832031 15.632812 63.179688 22.46875 57.996094 25.640625 C 57.9375 25.675781 53.207031 28.65625 48.292969 33.75 C 51.859375 32.589844 55.375 32.003906 58.800781 32.003906 C 60.421875 32.003906 62.023438 32.140625 63.5625 32.410156 C 72.992188 34.054688 80.109375 40.453125 83.609375 50.425781 C 91.140625 71.902344 78.648438 91.175781 62.222656 97.402344 C 58.386719 98.855469 54.429688 99.589844 50.460938 99.589844 M 58.792969 54.203125 C 54.449219 54.203125 46.65625 58.261719 41.140625 65.046875 C 40.515625 65.816406 39.941406 66.589844 39.425781 67.363281 C 39.457031 67.445312 39.488281 67.523438 39.519531 67.605469 C 41.011719 71.265625 44.414062 77.414062 50.449219 77.414062 C 51.691406 77.414062 53.007812 77.152344 54.359375 76.640625 C 60.746094 74.21875 65.832031 66.785156 62.671875 57.773438 C 61.554688 54.59375 60.382812 54.390625 59.75 54.28125 C 59.464844 54.230469 59.140625 54.203125 58.792969 54.203125 "/>
<g clip-path="url(#clip1)" clip-rule="nonzero">
<path style=" stroke:none;fill-rule:nonzero;fill:rgb(100%,98.81897%,78.819275%);fill-opacity:1;" d="M 55.4375 51.011719 C 55.785156 51.011719 56.109375 51.039062 56.398438 51.085938 C 57.027344 51.199219 58.203125 51.402344 59.316406 54.582031 C 62.476562 63.59375 57.394531 71.027344 51.003906 73.449219 C 49.652344 73.960938 48.335938 74.21875 47.09375 74.21875 C 41.058594 74.21875 37.65625 68.074219 36.167969 64.410156 C 36.132812 64.332031 36.101562 64.25 36.070312 64.171875 C 36.585938 63.398438 37.164062 62.621094 37.785156 61.851562 C 43.300781 55.066406 51.09375 51.011719 55.4375 51.011719 Z M 60.207031 29.21875 C 58.667969 28.949219 57.066406 28.8125 55.449219 28.8125 C 52.019531 28.8125 48.507812 29.398438 44.9375 30.558594 C 49.851562 25.464844 54.582031 22.484375 54.640625 22.445312 C 59.824219 19.277344 61.480469 12.441406 58.304688 7.222656 C 56.273438 3.886719 52.726562 1.890625 48.820312 1.890625 C 46.792969 1.890625 44.796875 2.453125 43.058594 3.511719 C 42.613281 3.785156 32.050781 10.289062 23.453125 21.542969 C 13.832031 34.144531 10.050781 48.113281 12.488281 62.019531 C 9.941406 69.4375 9.960938 76.777344 12.554688 83.3125 C 14.242188 87.566406 18.289062 90.316406 22.867188 90.316406 C 24.269531 90.316406 25.648438 90.050781 26.957031 89.53125 C 27.105469 89.472656 27.25 89.410156 27.394531 89.347656 C 29.574219 91.121094 31.9375 92.582031 34.441406 93.703125 C 38.429688 95.492188 42.6875 96.398438 47.105469 96.398438 C 51.074219 96.398438 55.03125 95.664062 58.867188 94.207031 C 75.292969 87.980469 87.785156 68.707031 80.253906 47.230469 C 76.757812 37.257812 69.636719 30.863281 60.207031 29.21875 "/>
</g>
<path style=" stroke:none;fill-rule:nonzero;fill:rgb(49.409485%,85.099792%,34.118652%);fill-opacity:1;" d="M 31.539062 63.707031 C 31.789062 64.457031 32.066406 65.207031 32.375 65.957031 C 36.554688 76.226562 44.0625 80.460938 52.453125 77.28125 C 60.652344 74.171875 67.199219 64.683594 63.179688 53.226562 C 61.46875 48.34375 58.890625 47.363281 57.101562 47.050781 C 50.933594 45.976562 41.050781 51.34375 34.609375 59.269531 C 33.410156 60.746094 32.382812 62.234375 31.539062 63.707031 Z M 47.105469 92.300781 C 43.3125 92.300781 39.585938 91.523438 36.117188 89.96875 C 33.058594 88.59375 30.265625 86.65625 27.78125 84.199219 C 27.132812 84.839844 26.347656 85.363281 25.449219 85.722656 C 21.855469 87.152344 17.785156 85.394531 16.359375 81.800781 C 13.992188 75.835938 14.167969 69.117188 16.71875 62.363281 C 14.09375 49.21875 17.472656 36.125 26.703125 24.03125 C 34.839844 13.378906 44.769531 7.265625 45.1875 7.011719 C 48.488281 5 52.796875 6.046875 54.804688 9.351562 C 56.8125 12.652344 55.773438 16.953125 52.476562 18.96875 C 52.277344 19.09375 44.066406 24.238281 37.597656 32.839844 C 35.300781 35.894531 33.515625 38.984375 32.246094 42.101562 C 34.683594 40.191406 37.253906 38.515625 39.875 37.144531 C 46.730469 33.554688 53.519531 32.210938 59.507812 33.253906 C 67.410156 34.632812 73.40625 40.078125 76.390625 48.585938 C 83.09375 67.703125 72.007812 84.847656 57.414062 90.375 C 54.027344 91.660156 50.542969 92.300781 47.105469 92.300781 "/>
</g>
</svg>
