<?xml version="1.0" encoding="UTF-8"?>
<svg xmlns="http://www.w3.org/2000/svg" xmlns:xlink="http://www.w3.org/1999/xlink" width="99pt" height="98.999996pt" viewBox="0 0 99 98.999996" version="1.2">
<defs>
<clipPath id="clip1">
  <path d="M 13 3 L 89.707031 3 L 89.707031 99 L 13 99 Z M 13 3 "/>
</clipPath>
<clipPath id="clip2">
  <path d="M 10.007812 0 L 87 0 L 87 97 L 10.007812 97 Z M 10.007812 0 "/>
</clipPath>
</defs>
<g id="surface1">
<g clip-path="url(#clip1)" clip-rule="nonzero">
<path style=" stroke:none;fill-rule:nonzero;fill:rgb(2.749634%,6.669617%,5.488586%);fill-opacity:1;" d="M 44.394531 99.25 C 44.1875 99.25 43.976562 99.242188 43.761719 99.230469 C 37.710938 98.886719 33.066406 93.710938 33.414062 87.691406 C 34.054688 76.542969 36.449219 65.535156 40.523438 54.980469 C 43.765625 46.589844 48.070312 38.464844 53.320312 30.839844 C 54.691406 28.851562 56.117188 26.90625 57.597656 25.011719 L 57.515625 25.011719 C 54.289062 25.011719 50.722656 25.230469 46.914062 25.65625 C 36.519531 26.828125 27.753906 29.1875 27.671875 29.210938 C 26.71875 29.46875 25.742188 29.601562 24.757812 29.601562 C 19.824219 29.601562 15.46875 26.292969 14.160156 21.558594 C 13.386719 18.738281 13.757812 15.789062 15.210938 13.253906 C 16.664062 10.714844 19.023438 8.890625 21.855469 8.121094 C 22.277344 8.003906 32.296875 5.296875 44.441406 3.929688 C 49.058594 3.40625 53.4375 3.144531 57.457031 3.144531 C 68.910156 3.144531 78.015625 5.285156 84.515625 9.515625 C 87.433594 11.410156 89.289062 14.613281 89.472656 18.078125 C 89.660156 21.535156 88.167969 24.90625 85.484375 27.105469 C 85.066406 27.457031 78.269531 33.210938 71.207031 43.574219 C 61.617188 57.628906 56.289062 72.894531 55.363281 88.941406 C 55.03125 94.71875 50.214844 99.25 44.394531 99.25 "/>
</g>
<g clip-path="url(#clip2)" clip-rule="nonzero">
<path style=" stroke:none;fill-rule:nonzero;fill:rgb(100%,98.81897%,78.819275%);fill-opacity:1;" d="M 81.191406 6.367188 C 74.691406 2.140625 65.585938 0 54.132812 0 C 50.113281 0 45.734375 0.261719 41.117188 0.78125 C 28.972656 2.152344 18.953125 4.859375 18.53125 4.972656 C 15.703125 5.746094 13.339844 7.570312 11.886719 10.109375 C 10.433594 12.644531 10.0625 15.59375 10.835938 18.410156 C 12.144531 23.148438 16.5 26.453125 21.4375 26.453125 C 22.414062 26.453125 23.394531 26.324219 24.347656 26.0625 C 24.429688 26.042969 33.195312 23.683594 43.59375 22.511719 C 47.398438 22.085938 50.964844 21.867188 54.191406 21.867188 C 54.21875 21.867188 54.246094 21.867188 54.273438 21.867188 C 52.796875 23.761719 51.367188 25.707031 49.996094 27.695312 C 44.746094 35.320312 40.441406 43.441406 37.199219 51.839844 C 33.125 62.394531 30.730469 73.398438 30.089844 84.546875 C 29.742188 90.566406 34.386719 95.742188 40.4375 96.085938 C 40.65625 96.097656 40.863281 96.105469 41.070312 96.105469 C 46.890625 96.105469 51.707031 91.574219 52.039062 85.796875 C 52.964844 69.75 58.292969 54.484375 67.882812 40.425781 C 74.945312 30.066406 81.742188 24.3125 82.160156 23.960938 C 84.847656 21.761719 86.335938 18.390625 86.148438 14.933594 C 85.964844 11.46875 84.109375 8.265625 81.191406 6.367188 "/>
</g>
<path style=" stroke:none;fill-rule:nonzero;fill:rgb(100%,39.99939%,76.858521%);fill-opacity:1;" d="M 41.070312 92.070312 C 40.9375 92.070312 40.804688 92.066406 40.667969 92.058594 C 36.84375 91.839844 33.921875 88.578125 34.140625 84.777344 C 34.757812 74.042969 37.0625 63.449219 40.988281 53.285156 C 44.113281 45.183594 48.273438 37.339844 53.34375 29.976562 C 56.554688 25.316406 59.730469 21.433594 62.472656 18.375 C 57.3125 17.613281 50.746094 17.644531 43.132812 18.503906 C 32.34375 19.71875 23.363281 22.148438 23.273438 22.171875 C 19.578125 23.179688 15.761719 21.019531 14.75 17.34375 C 13.738281 13.667969 15.910156 9.875 19.605469 8.867188 C 20.011719 8.757812 29.722656 6.128906 41.570312 4.792969 C 58.414062 2.894531 70.996094 4.5625 78.96875 9.746094 C 80.816406 10.949219 81.980469 12.957031 82.101562 15.152344 C 82.21875 17.34375 81.277344 19.464844 79.566406 20.855469 C 79.507812 20.90625 72.09375 27.058594 64.523438 38.160156 C 54.519531 52.832031 48.953125 68.78125 47.988281 85.566406 C 47.777344 89.234375 44.71875 92.070312 41.070312 92.070312 "/>
</g>
</svg>
