<?xml version="1.0" encoding="UTF-8"?>
<svg xmlns="http://www.w3.org/2000/svg" xmlns:xlink="http://www.w3.org/1999/xlink" width="99pt" height="98.999996pt" viewBox="0 0 99 98.999996" version="1.2">
<defs>
<clipPath id="clip1">
  <path d="M 13 5 L 89 5 L 89 97.105469 L 13 97.105469 Z M 13 5 "/>
</clipPath>
<clipPath id="clip2">
  <path d="M 10 2.367188 L 86 2.367188 L 86 95 L 10 95 Z M 10 2.367188 "/>
</clipPath>
</defs>
<g id="surface1">
<g clip-path="url(#clip1)" clip-rule="nonzero">
<path style=" stroke:none;fill-rule:nonzero;fill:rgb(2.749634%,6.669617%,5.488586%);fill-opacity:1;" d="M 50.960938 97.074219 C 46.054688 97.074219 41.308594 96.316406 36.851562 94.816406 C 22.378906 89.953125 13.570312 78.210938 13.289062 63.410156 C 13.152344 56.179688 15.8125 49.808594 20.984375 44.980469 C 21.34375 44.644531 21.710938 44.320312 22.09375 44.003906 C 19.222656 39.769531 17.671875 34.765625 17.566406 29.308594 C 17.453125 23.222656 19.699219 17.851562 24.070312 13.777344 C 26.734375 11.289062 30.136719 9.351562 34.464844 7.851562 C 37.859375 6.675781 43.726562 5.417969 50.019531 5.417969 C 56.191406 5.417969 61.546875 6.601562 65.929688 8.941406 C 72.445312 12.417969 76.480469 18.152344 77.597656 25.515625 C 78.375 30.644531 77.792969 35.550781 75.914062 39.925781 C 82.714844 44.140625 86.921875 50.609375 88.171875 58.847656 C 89.644531 68.570312 87.242188 77.398438 81.234375 84.375 C 74.382812 92.328125 63.066406 97.074219 50.960938 97.074219 M 45.691406 56.484375 C 43.828125 56.824219 42.128906 57.242188 40.871094 57.679688 C 34.449219 59.902344 34.480469 61.625 34.507812 63.007812 C 34.617188 68.875 37.601562 72.710938 43.625 74.734375 C 45.863281 75.488281 48.398438 75.882812 50.964844 75.882812 C 56.792969 75.882812 62.355469 73.792969 65.144531 70.554688 C 67.054688 68.339844 67.71875 65.546875 67.1875 62.015625 C 66.960938 60.535156 66.285156 56.066406 55.339844 55.738281 C 52.851562 56.277344 50.308594 56.546875 47.769531 56.546875 L 47.765625 56.546875 C 47.085938 56.546875 46.40625 56.527344 45.691406 56.484375 M 50.019531 26.605469 C 46.101562 26.605469 42.683594 27.433594 41.425781 27.871094 C 39.871094 28.40625 39.125 28.84375 38.792969 29.078125 C 38.898438 31.953125 40.28125 33.632812 43.390625 34.675781 C 43.933594 34.859375 44.53125 35.007812 45.175781 35.121094 C 47.660156 34.792969 50.152344 34.597656 52.601562 34.539062 C 53.988281 34.03125 55.117188 33.324219 55.8125 32.519531 C 56.359375 31.882812 56.945312 30.875 56.613281 28.683594 C 56.546875 28.261719 56.523438 28.105469 56.246094 27.867188 C 55.902344 27.570312 54.429688 26.605469 50.019531 26.605469 "/>
</g>
<g clip-path="url(#clip2)" clip-rule="nonzero">
<path style=" stroke:none;fill-rule:nonzero;fill:rgb(100%,98.81897%,78.819275%);fill-opacity:1;" d="M 42.484375 53.4375 C 43.195312 53.480469 43.878906 53.5 44.558594 53.5 L 44.5625 53.5 C 47.097656 53.5 49.644531 53.226562 52.132812 52.691406 C 63.078125 53.019531 63.753906 57.488281 63.976562 58.96875 C 64.511719 62.5 63.84375 65.292969 61.9375 67.507812 C 59.148438 70.746094 53.582031 72.835938 47.757812 72.835938 C 45.191406 72.835938 42.652344 72.4375 40.414062 71.6875 C 34.390625 69.660156 31.410156 65.824219 31.296875 59.960938 C 31.269531 58.578125 31.238281 56.855469 37.660156 54.628906 C 38.917969 54.195312 40.617188 53.773438 42.484375 53.4375 Z M 52.601562 29.46875 C 51.910156 30.277344 50.777344 30.984375 49.390625 31.492188 C 46.941406 31.550781 44.449219 31.742188 41.96875 32.074219 C 41.324219 31.960938 40.722656 31.8125 40.183594 31.628906 C 37.074219 30.585938 35.6875 28.902344 35.582031 26.03125 C 35.914062 25.796875 36.664062 25.359375 38.214844 24.820312 C 39.476562 24.386719 42.894531 23.558594 46.808594 23.558594 C 51.222656 23.558594 52.691406 24.523438 53.039062 24.820312 C 53.316406 25.054688 53.339844 25.214844 53.402344 25.636719 C 53.734375 27.824219 53.152344 28.835938 52.601562 29.46875 Z M 72.707031 36.878906 C 74.582031 32.503906 75.167969 27.597656 74.390625 22.46875 C 73.273438 15.101562 69.238281 9.371094 62.722656 5.894531 C 58.339844 3.554688 52.984375 2.367188 46.808594 2.367188 C 40.519531 2.367188 34.652344 3.625 31.253906 4.804688 C 26.929688 6.304688 23.527344 8.242188 20.859375 10.730469 C 16.492188 14.804688 14.242188 20.175781 14.359375 26.261719 C 14.464844 31.71875 16.015625 36.71875 18.882812 40.957031 C 18.503906 41.273438 18.132812 41.597656 17.777344 41.933594 C 12.605469 46.757812 9.941406 53.132812 10.078125 60.363281 C 10.359375 75.164062 19.167969 86.902344 33.644531 91.769531 C 38.101562 93.269531 42.847656 94.027344 47.753906 94.027344 C 59.859375 94.027344 71.175781 89.28125 78.027344 81.328125 C 84.035156 74.351562 86.433594 65.523438 84.960938 55.800781 C 83.714844 47.5625 79.503906 41.09375 72.707031 36.878906 "/>
</g>
<path style=" stroke:none;fill-rule:nonzero;fill:rgb(59.21936%,9.408569%,54.119873%);fill-opacity:1;" d="M 64.90625 70.058594 C 61.351562 74.183594 54.777344 76.746094 47.753906 76.746094 C 44.773438 76.746094 41.800781 76.277344 39.164062 75.394531 C 33.890625 73.617188 27.5625 69.515625 27.382812 60.035156 C 27.3125 56.46875 28.820312 53.554688 36.378906 50.933594 C 37.859375 50.421875 39.917969 49.90625 42.269531 49.503906 C 43.027344 49.558594 43.789062 49.589844 44.558594 49.589844 L 44.5625 49.589844 C 47.027344 49.589844 49.441406 49.300781 51.746094 48.769531 C 61.484375 48.953125 66.910156 52.179688 67.851562 58.382812 C 68.554688 63.046875 67.566406 66.972656 64.90625 70.058594 Z M 36.929688 21.128906 C 38.515625 20.578125 42.382812 19.648438 46.808594 19.648438 C 56.457031 19.648438 57.074219 23.714844 57.277344 25.050781 C 57.710938 27.90625 57.152344 30.1875 55.574219 32.019531 C 54.289062 33.507812 52.351562 34.667969 50.070312 35.390625 C 47.21875 35.429688 44.464844 35.667969 41.925781 36.027344 C 40.886719 35.878906 39.875 35.652344 38.933594 35.335938 C 34.199219 33.746094 31.75 30.578125 31.664062 25.933594 C 31.640625 24.753906 31.605469 22.972656 36.929688 21.128906 Z M 81.089844 56.386719 C 79.824219 48.03125 75.03125 41.90625 67.410156 38.492188 C 70.308594 34.074219 71.386719 28.792969 70.515625 23.050781 C 69.59375 16.957031 66.257812 12.214844 60.875 9.34375 C 57.066406 7.308594 52.332031 6.277344 46.808594 6.277344 C 41.007812 6.277344 35.632812 7.425781 32.539062 8.496094 C 28.738281 9.816406 25.792969 11.480469 23.535156 13.585938 C 20 16.882812 18.179688 21.242188 18.277344 26.1875 C 18.390625 32.308594 20.625 37.667969 24.53125 41.726562 C 23.011719 42.652344 21.660156 43.664062 20.449219 44.792969 C 16.109375 48.835938 13.878906 54.195312 13.996094 60.289062 C 14.242188 73.363281 22.054688 83.75 34.894531 88.0625 C 38.945312 89.425781 43.273438 90.117188 47.753906 90.117188 C 58.734375 90.117188 68.9375 85.878906 75.058594 78.777344 C 80.300781 72.691406 82.382812 64.949219 81.089844 56.386719 "/>
</g>
</svg>
