<?xml version="1.0" encoding="UTF-8"?>
<svg xmlns="http://www.w3.org/2000/svg" xmlns:xlink="http://www.w3.org/1999/xlink" width="99pt" height="98.999996pt" viewBox="0 0 99 98.999996" version="1.2">
<defs>
<clipPath id="clip1">
  <path d="M 13 4 L 89 4 L 89 98.660156 L 13 98.660156 Z M 13 4 "/>
</clipPath>
<clipPath id="clip2">
  <path d="M 10 0.914062 L 85 0.914062 L 85 96 L 10 96 Z M 10 0.914062 "/>
</clipPath>
</defs>
<g id="surface1">
<g clip-path="url(#clip1)" clip-rule="nonzero">
<path style=" stroke:none;fill-rule:nonzero;fill:rgb(2.749634%,6.669617%,5.488586%);fill-opacity:1;" d="M 72.363281 98.65625 C 67.660156 98.65625 63.503906 95.660156 62.015625 91.199219 C 59.109375 82.484375 57.597656 72.777344 57.519531 62.351562 C 57.515625 62.25 57.515625 62.148438 57.515625 62.050781 C 54.210938 62.921875 50.742188 63.371094 47.257812 63.371094 C 42.886719 63.371094 38.660156 62.695312 34.679688 61.355469 C 21.605469 56.957031 13.644531 46.324219 13.390625 32.917969 C 13.265625 26.21875 15.730469 20.316406 20.527344 15.835938 C 23.492188 13.070312 27.300781 10.902344 32.167969 9.214844 C 36.027344 7.875 42.714844 6.441406 49.894531 6.441406 C 56.703125 6.441406 62.609375 7.707031 67.457031 10.203125 C 69.273438 6.445312 73.054688 4.054688 77.277344 4.054688 C 78.691406 4.054688 80.078125 4.328125 81.394531 4.863281 C 86.960938 7.132812 89.644531 13.507812 87.382812 19.058594 C 87.238281 19.417969 73.050781 55.320312 82.714844 84.304688 C 83.636719 87.066406 83.425781 90.019531 82.125 92.628906 C 80.820312 95.230469 78.578125 97.171875 75.816406 98.09375 C 74.699219 98.46875 73.539062 98.65625 72.363281 98.65625 M 49.894531 28.25 C 45.730469 28.25 41.496094 29.058594 39.320312 29.816406 C 35.765625 31.046875 35.238281 31.96875 35.234375 31.972656 C 35.230469 31.992188 35.199219 32.101562 35.207031 32.503906 C 35.257812 35.105469 35.976562 38.78125 41.640625 40.6875 C 43.347656 41.261719 45.289062 41.566406 47.257812 41.566406 L 47.257812 43.578125 L 47.261719 41.566406 C 51.671875 41.566406 55.824219 40.050781 57.84375 37.703125 C 58.695312 36.714844 59.613281 35.164062 59.132812 31.980469 C 59.035156 31.34375 58.945312 30.742188 58.273438 30.140625 C 57.480469 29.433594 55.34375 28.25 49.894531 28.25 "/>
</g>
<g clip-path="url(#clip2)" clip-rule="nonzero">
<path style=" stroke:none;fill-rule:nonzero;fill:rgb(100%,98.81897%,78.819275%);fill-opacity:1;" d="M 43.960938 40.441406 L 43.960938 38.429688 C 41.992188 38.429688 40.046875 38.125 38.34375 37.550781 C 32.679688 35.644531 31.957031 31.96875 31.90625 29.367188 C 31.898438 28.964844 31.929688 28.855469 31.9375 28.839844 C 31.9375 28.832031 32.464844 27.914062 36.023438 26.679688 C 38.195312 25.925781 42.433594 25.113281 46.59375 25.113281 C 52.042969 25.113281 54.183594 26.296875 54.972656 27.003906 C 55.644531 27.605469 55.738281 28.207031 55.835938 28.847656 C 56.316406 32.027344 55.398438 33.578125 54.542969 34.566406 C 52.523438 36.914062 48.371094 38.429688 43.960938 38.429688 Z M 78.097656 1.730469 C 76.777344 1.191406 75.390625 0.917969 73.976562 0.917969 C 69.757812 0.917969 65.972656 3.308594 64.15625 7.066406 C 59.3125 4.570312 53.40625 3.304688 46.59375 3.304688 C 39.414062 3.304688 32.730469 4.738281 28.867188 6.078125 C 24 7.765625 20.191406 9.933594 17.226562 12.703125 C 12.433594 17.179688 9.964844 23.082031 10.09375 29.78125 C 10.347656 43.1875 18.304688 53.820312 31.378906 58.21875 C 35.359375 59.558594 39.589844 60.238281 43.957031 60.238281 C 47.445312 60.238281 50.914062 59.785156 54.214844 58.914062 C 54.21875 59.011719 54.21875 59.113281 54.21875 59.214844 C 54.296875 69.640625 55.808594 79.347656 58.71875 88.0625 C 60.203125 92.523438 64.363281 95.519531 69.066406 95.519531 C 70.238281 95.519531 71.398438 95.332031 72.515625 94.957031 C 75.28125 94.035156 77.523438 92.09375 78.824219 89.492188 C 80.128906 86.886719 80.335938 83.929688 79.417969 81.167969 C 69.75 52.183594 83.9375 16.285156 84.082031 15.925781 C 86.34375 10.371094 83.660156 3.996094 78.097656 1.730469 "/>
</g>
<path style=" stroke:none;fill-rule:nonzero;fill:rgb(59.21936%,9.408569%,9.408569%);fill-opacity:1;" d="M 43.960938 42.453125 L 43.957031 42.453125 C 41.558594 42.453125 39.171875 42.078125 37.058594 41.367188 C 32.949219 39.984375 28.023438 36.792969 27.882812 29.441406 C 27.839844 27.332031 28.335938 25.085938 34.703125 22.875 C 37.269531 21.988281 41.941406 21.089844 46.59375 21.089844 C 58.734375 21.089844 59.546875 26.472656 59.816406 28.246094 C 60.367188 31.890625 59.640625 34.816406 57.597656 37.191406 C 54.804688 40.4375 49.578125 42.453125 43.960938 42.453125 Z M 76.574219 5.457031 C 73.054688 4.019531 69.039062 5.707031 67.601562 9.226562 C 67.539062 9.378906 66.976562 10.773438 66.152344 13.152344 C 65.085938 12.28125 63.914062 11.496094 62.628906 10.808594 C 58.304688 8.5 52.910156 7.328125 46.59375 7.328125 C 39.917969 7.328125 33.742188 8.648438 30.191406 9.878906 C 25.863281 11.378906 22.523438 13.265625 19.976562 15.644531 C 16.039062 19.320312 14.011719 24.179688 14.117188 29.703125 C 14.339844 41.339844 21.273438 50.574219 32.664062 54.40625 C 36.226562 55.605469 40.027344 56.210938 43.957031 56.210938 L 43.960938 56.210938 C 49.09375 56.210938 54.035156 55.140625 58.359375 53.203125 C 58.269531 55.222656 58.230469 57.21875 58.246094 59.183594 C 58.320312 69.1875 59.761719 78.476562 62.535156 86.789062 C 63.5 89.671875 66.183594 91.496094 69.066406 91.496094 C 69.789062 91.496094 70.523438 91.382812 71.242188 91.140625 C 74.847656 89.941406 76.796875 86.042969 75.597656 82.441406 C 65.40625 51.882812 80.199219 14.789062 80.351562 14.417969 C 81.78125 10.902344 80.09375 6.890625 76.574219 5.457031 "/>
</g>
</svg>
